<svg width="492" height="492" viewBox="0 0 492 492" fill="none" xmlns="http://www.w3.org/2000/svg">
<path d="M21.529 215.977L20.9311 216.107H386.217L305.65 135.393C301.705 131.452 299.541 126.114 299.541 120.511C299.541 114.908 301.705 109.607 305.65 105.657L318.186 93.1195C322.129 89.1789 327.382 87 332.983 87C338.588 87 343.844 89.1633 347.786 93.104L485.894 231.148C489.851 235.104 492.015 240.374 492 245.98C492.015 251.617 489.851 256.89 485.894 260.84L347.786 398.896C343.844 402.834 338.591 405 332.983 405C327.382 405 322.129 402.83 318.186 398.896L305.65 386.358C301.705 382.424 299.541 377.17 299.541 371.567C299.541 365.967 301.705 360.99 305.65 357.052L387.126 275.886H21.2425C9.69956 275.886 0 265.941 0 254.409V236.676C0 225.144 9.98603 215.977 21.529 215.977Z" fill="white"/>
</svg>
