<svg width="26" height="40" viewBox="0 0 26 40" fill="none" xmlns="http://www.w3.org/2000/svg">
<path d="M12.9874 33.605L5.97412 26.1911L8.24432 24.0436L12.9813 29.0512L17.6901 24.0466L19.9661 26.188L12.9874 33.605ZM25.9375 30.625V9.375C25.9375 4.20563 21.7319 0 16.5625 0H9.375C4.20563 0 0 4.20563 0 9.375V30.625C0 35.7944 4.20563 40 9.375 40H16.5625C21.7319 40 25.9375 35.7944 25.9375 30.625ZM16.5625 3.125C20.0089 3.125 22.8125 5.92865 22.8125 9.375V30.625C22.8125 34.0714 20.0089 36.875 16.5625 36.875H9.375C5.92865 36.875 3.125 34.0714 3.125 30.625V9.375C3.125 5.92865 5.92865 3.125 9.375 3.125H16.5625ZM12.9688 6.32812C12.1057 6.32812 11.4062 7.02759 11.4062 7.89062C11.4062 8.75366 12.1057 9.45312 12.9688 9.45312C13.8318 9.45312 14.5312 8.75366 14.5312 7.89062C14.5312 7.02759 13.8318 6.32812 12.9688 6.32812ZM12.9688 12.5781C12.1057 12.5781 11.4062 13.2776 11.4062 14.1406C11.4062 15.0037 12.1057 15.7031 12.9688 15.7031C13.8318 15.7031 14.5312 15.0037 14.5312 14.1406C14.5312 13.2776 13.8318 12.5781 12.9688 12.5781ZM12.9688 18.8281C12.1057 18.8281 11.4062 19.5276 11.4062 20.3906C11.4062 21.2537 12.1057 21.9531 12.9688 21.9531C13.8318 21.9531 14.5312 21.2537 14.5312 20.3906C14.5312 19.5276 13.8318 18.8281 12.9688 18.8281Z" fill="white"/>
</svg>
