<svg width="64" height="64" viewBox="0 0 64 64" fill="none" xmlns="http://www.w3.org/2000/svg">
<path d="M8.4375 23.0469H56.5625V56.5625H8.4375V23.0469Z" fill="#368A08"/>
<rect x="8.4375" y="8.4375" width="48.125" height="12.0312" fill="#99CC33"/>
<path fill-rule="evenodd" clip-rule="evenodd" d="M57.4219 6.71875H7.57812C7.10351 6.71875 6.71875 7.10351 6.71875 7.57813V17.8906C6.71875 18.3652 7.10351 18.75 7.57812 18.75H57.4219C57.8965 18.75 58.2812 18.3652 58.2812 17.8906V7.57812C58.2812 7.10351 57.8965 6.71875 57.4219 6.71875ZM7.57812 5C6.15427 5 5 6.15427 5 7.57813V17.8906C5 19.3145 6.15427 20.4688 7.57812 20.4688H57.4219C58.8457 20.4688 60 19.3145 60 17.8906V7.57812C60 6.15427 58.8457 5 57.4219 5H7.57812Z" fill="#7BFF53"/>
<path d="M11.0156 25.625C11.0156 25.1504 11.4004 24.7656 11.875 24.7656C12.3496 24.7656 12.7344 25.1504 12.7344 25.625V55.7031C12.7344 56.1777 12.3496 56.5625 11.875 56.5625C11.4004 56.5625 11.0156 56.1777 11.0156 55.7031V25.625Z" fill="#7BFF53"/>
<path d="M53.125 25.625C53.125 25.1504 53.5098 24.7656 53.9844 24.7656C54.459 24.7656 54.8438 25.1504 54.8438 25.625V55.7031C54.8438 56.1777 54.459 56.5625 53.9844 56.5625C53.5098 56.5625 53.125 56.1777 53.125 55.7031V25.625Z" fill="#7BFF53"/>
<path d="M5 59.1406C5 58.666 5.38476 58.2812 5.85938 58.2812H59.1406C59.6152 58.2812 60 58.666 60 59.1406C60 59.6152 59.6152 60 59.1406 60H5.85938C5.38476 60 5 59.6152 5 59.1406Z" fill="#7BFF53"/>
<path d="M27.3438 39.375C27.3438 38.9004 27.7285 38.5156 28.2031 38.5156C28.6777 38.5156 29.0625 38.9004 29.0625 39.375V42.8125C29.0625 43.2871 28.6777 43.6719 28.2031 43.6719C27.7285 43.6719 27.3438 43.2871 27.3438 42.8125V39.375Z" fill="#7BFF53"/>
<path d="M36.7969 39.375C36.7969 38.9004 37.1816 38.5156 37.6562 38.5156C38.1309 38.5156 38.5156 38.9004 38.5156 39.375V42.8125C38.5156 43.2871 38.1309 43.6719 37.6562 43.6719C37.1816 43.6719 36.7969 43.2871 36.7969 42.8125V39.375Z" fill="#7BFF53"/>
<path fill-rule="evenodd" clip-rule="evenodd" d="M29.0625 29.9219H20.4688C19.9941 29.9219 19.6094 30.3066 19.6094 30.7812V51.4062C19.6094 51.8809 19.9941 52.2656 20.4688 52.2656H29.0625C29.5371 52.2656 29.9219 51.8809 29.9219 51.4062V30.7812C29.9219 30.3066 29.5371 29.9219 29.0625 29.9219ZM20.4688 28.2031C19.0449 28.2031 17.8906 29.3574 17.8906 30.7812V51.4062C17.8906 52.8301 19.0449 53.9844 20.4688 53.9844H29.0625C30.4864 53.9844 31.6406 52.8301 31.6406 51.4062V30.7812C31.6406 29.3574 30.4864 28.2031 29.0625 28.2031H20.4688Z" fill="#7BFF53"/>
<path fill-rule="evenodd" clip-rule="evenodd" d="M45.3906 29.9219H36.7969C36.3223 29.9219 35.9375 30.3066 35.9375 30.7812V51.4062C35.9375 51.8809 36.3223 52.2656 36.7969 52.2656H45.3906C45.8652 52.2656 46.25 51.8809 46.25 51.4062V30.7812C46.25 30.3066 45.8652 29.9219 45.3906 29.9219ZM36.7969 28.2031C35.373 28.2031 34.2188 29.3574 34.2188 30.7812V51.4062C34.2188 52.8301 35.373 53.9844 36.7969 53.9844H45.3906C46.8145 53.9844 47.9688 52.8301 47.9688 51.4062V30.7812C47.9688 29.3574 46.8145 28.2031 45.3906 28.2031H36.7969Z" fill="#7BFF53"/>
</svg>
