<svg width="64" height="64" viewBox="0 0 64 64" fill="none" xmlns="http://www.w3.org/2000/svg">
<path d="M4 29H11V56H4V29Z" fill="#368A08"/>
<path d="M54 29H61V56H54V29Z" fill="#368A08"/>
<path fill-rule="evenodd" clip-rule="evenodd" d="M48 16H16V50C16 53 17.5 55 21 55H48C55 55 55 45 48 45V16ZM21.5 44.5C21.2239 44.5 21 44.7239 21 45C21 45.2761 21.2239 45.5 21.5 45.5C23.0027 45.5 24.0868 46.0165 24.7961 46.7531C25.5112 47.4957 25.875 48.4929 25.875 49.5C25.875 50.5071 25.5112 51.5043 24.7961 52.2469C24.0868 52.9835 23.0027 53.5 21.5 53.5C21.2239 53.5 21 53.7239 21 54C21 54.2761 21.2239 54.5 21.5 54.5C23.2473 54.5 24.6007 53.8915 25.5164 52.9406C26.4263 51.9957 26.875 50.7429 26.875 49.5C26.875 48.2571 26.4263 47.0043 25.5164 46.0594C25.321 45.8565 25.1056 45.6692 24.8708 45.5H46C46.2761 45.5 46.5 45.2761 46.5 45C46.5 44.7239 46.2761 44.5 46 44.5H21.5Z" fill="#99CC33"/>
<path d="M7 28C7 27.4477 7.44772 27 8 27C8.55228 27 9 27.4477 9 28V54C9 54.5523 8.55228 55 8 55C7.44772 55 7 54.5523 7 54V28Z" fill="#7BFF53"/>
<path d="M56 28C56 27.4477 56.4477 27 57 27C57.5523 27 58 27.4477 58 28V54C58 54.5523 57.5523 55 57 55C56.4477 55 56 54.5523 56 54V28Z" fill="#7BFF53"/>
<path d="M2 58C2 57.4477 2.44772 57 3 57H12C12.5523 57 13 57.4477 13 58C13 58.5523 12.5523 59 12 59H3C2.44772 59 2 58.5523 2 58Z" fill="#7BFF53"/>
<path d="M51 58C51 57.4477 51.4477 57 52 57H61C61.5523 57 62 57.4477 62 58C62 58.5523 61.5523 59 61 59H52C51.4477 59 51 58.5523 51 58Z" fill="#7BFF53"/>
<path fill-rule="evenodd" clip-rule="evenodd" d="M10 6H3C2.44772 6 2 6.44772 2 7V22C2 22.5523 2.44772 23 3 23H13C14.5 23 14.5 25 13 25H3C1.34315 25 0 23.6569 0 22V7C0 5.34315 1.34315 4 3 4H61C62.6569 4 64 5.34315 64 7V22C64 23.6569 62.6569 25 61 25H51C49.5 25 49.5 23 51 23H61C61.5523 23 62 22.5523 62 22V7C62 6.44772 61.5523 6 61 6H54V11C54 12.6569 52.6569 14 51 14H13C11.3431 14 10 12.6569 10 11V6ZM12 6V11C12 11.5523 12.4477 12 13 12H51C51.5523 12 52 11.5523 52 11V6H12Z" fill="#7BFF53"/>
</svg>
