<svg width="64" height="64" viewBox="0 0 64 64" fill="none" xmlns="http://www.w3.org/2000/svg">
<path d="M13.9153 15.6827C13.9153 15.2312 14.2177 14.8358 14.6534 14.7176L49.2003 5.34245C49.8362 5.16989 50.4622 5.64869 50.4622 6.30754V34.8843C50.4622 35.3364 50.1589 35.7323 49.7224 35.8499L15.1755 45.1584C14.54 45.3296 13.9153 44.851 13.9153 44.1929V15.6827Z" fill="#4800FC"/>
<path d="M11.9453 14.5378C11.9453 13.873 12.582 13.3933 13.221 13.5766L55.3613 25.6633C55.7901 25.7863 56.0856 26.1785 56.0856 26.6246V56.0239C56.0856 56.6887 55.449 57.1684 54.8099 56.9851L12.6696 44.8983C12.2408 44.7754 11.9453 44.3832 11.9453 43.9371V14.5378Z" fill="#FF0DCF"/>
<path fill-rule="evenodd" clip-rule="evenodd" d="M10.2747 17.5494C9.63586 17.367 9 17.8466 9 18.511V45.8326C9 46.2787 9.29548 46.6708 9.7243 46.7938L49.8646 58.3069C50.5036 58.4902 51.1403 58.0105 51.1403 57.3457V28.5201C51.1403 27.9678 51.588 27.5201 52.1403 27.5201C52.6926 27.5201 53.1403 27.9678 53.1403 28.5201V57.3457C53.1403 59.3401 51.2303 60.7793 49.3132 60.2294L9.17288 48.7163C7.88645 48.3473 7 47.1709 7 45.8326V18.511C7 16.5179 8.90758 15.0789 10.824 15.6264L47.2747 26.0385C47.8057 26.1902 48.1132 26.7436 47.9615 27.2747C47.8098 27.8057 47.2564 28.1132 46.7253 27.9615L10.2747 17.5494Z" fill="#03F7EA"/>
</svg>
