<svg width="64" height="64" viewBox="0 0 64 64" fill="none" xmlns="http://www.w3.org/2000/svg">
<path d="M8.14819 13.302L23.1852 8.11328L30.963 17.9718L38.7408 8.11328L60 15.3774V24.717C60 28.3491 57.4075 28.3491 55.3334 27.8302L50.6667 26.7925V50.6604C50.6667 54.8113 49.6297 55.8491 45.4815 55.8491H21.6297C18.5186 55.8491 17.4815 53.7736 17.4815 50.6604V22.6416L8.14819 24.717V13.302Z" fill="#368A08"/>
<path d="M21.2925 5.05643C21.718 4.91007 22.1893 5.05497 22.4593 5.41516L30.963 16.7611L39.4667 5.41516C39.7366 5.05497 40.2079 4.91007 40.6334 5.05643L57.226 10.764C57.6448 10.908 57.9259 11.3022 57.9259 11.7453V25.7548C57.9259 26.0718 57.7811 26.3714 57.5328 26.5683C57.2844 26.7651 56.9598 26.8375 56.6514 26.7649L48.5926 24.8675V41.3208C48.5926 41.8939 48.1283 42.3585 47.5556 42.3585C46.9828 42.3585 46.5185 41.8939 46.5185 41.3208V17.4529C46.5185 16.8798 46.9828 16.4151 47.5556 16.4151C48.1283 16.4151 48.5926 16.8798 48.5926 17.4529V22.7353L55.8519 24.4445V12.486L40.673 7.26472L31.7926 19.1133C31.5967 19.3746 31.2894 19.5284 30.963 19.5284C30.6365 19.5284 30.3292 19.3746 30.1333 19.1133L21.2529 7.26472L6.07407 12.486V24.4445L13.3333 22.7353V17.4529H14.3704C15.4074 17.4529 15.4074 17.4543 15.4074 17.4543V51.6981C15.4074 53.6153 15.8877 55.1778 16.7357 56.2385C17.5588 57.2681 18.805 57.9245 20.5926 57.9245H41.3333C43.5445 57.9245 44.7734 56.9629 45.503 55.7635C46.2747 54.4949 46.5185 52.8912 46.5185 51.6981C46.5185 51.125 46.9828 50.6604 47.5555 50.6604C48.1283 50.6604 48.5926 51.125 48.5926 51.6981C48.5926 53.0993 48.3178 55.1277 47.2747 56.8426C46.1894 58.6267 44.3073 60 41.3333 60H20.5926C18.232 60 16.3671 59.0999 15.1161 57.5351C13.89 56.0014 13.3333 53.9319 13.3333 51.6981V24.8675L5.27456 26.7649C4.96617 26.8375 4.64152 26.7651 4.39317 26.5683C4.14482 26.3714 4 26.0718 4 25.7548V11.7453C4 11.3022 4.28116 10.908 4.69992 10.764L21.2925 5.05643Z" fill="#7BFF53"/>
<path d="M14.3704 17.4529C13.3333 17.4529 13.3333 17.4529 13.3333 17.4529C13.3333 16.8798 13.7976 16.4151 14.3704 16.4151C14.9431 16.4151 15.4074 16.8798 15.4074 17.4529H14.3704Z" fill="#7BFF53"/>
<rect x="37" y="24.5355" width="5" height="5" transform="rotate(-45 37 24.5355)" fill="#99CC33"/>
</svg>
