<svg width="500" height="254" viewBox="0 0 500 254" fill="none" xmlns="http://www.w3.org/2000/svg">
<g clip-path="url(#clip0)">
<path fill-rule="evenodd" clip-rule="evenodd" d="M253.623 0L224.638 57.9287L152.174 209.992L130.435 253.438H159.42C181.159 217.233 210.145 188.268 253.623 188.268C289.855 188.268 326.087 217.233 340.58 253.438H369.565L347.826 209.992L275.362 57.9287L253.623 0ZM253.623 166.545C268.116 166.545 289.855 166.545 311.594 181.027L253.623 57.9287L195.652 181.027C210.145 166.545 231.884 166.545 253.623 166.545ZM0 101.375H195.652L202.899 86.8931L0 94.1342V101.375ZM0 224.474H137.681L130.435 238.956L0 231.715V224.474ZM500 224.474H369.565V238.956L500 231.715V224.474ZM500 101.375H311.594L304.348 86.8931L500 94.1342V101.375Z" fill="#99CC33"/>
<path fill-rule="evenodd" clip-rule="evenodd" d="M413.044 115.857H485.507V137.581H434.783V152.063H471.015V173.786H434.783V195.509H485.507V209.992H413.044V195.509V173.786V152.063V137.581V115.857ZM326.087 115.857H405.797V137.581H347.826L376.812 195.509H384.058V159.304H369.565V137.581H405.797V144.822V159.304V195.509V209.992H362.319L326.087 137.581V115.857ZM43.4784 137.581V195.509H50.7248V209.992H43.4784H28.9856H21.7393V195.509H28.9856V137.581H21.7393V115.857H50.7248V137.581H43.4784ZM159.42 115.857V166.545L144.928 209.992V159.304L115.942 209.992H108.696L79.7103 159.304V209.992H65.2175V115.857H79.7103L108.696 181.027L144.928 115.857H159.42Z" fill="#FEFEFE"/>
</g>
<defs>
<clipPath id="clip0">
<rect width="500" height="253.438" fill="white"/>
</clipPath>
</defs>
</svg>
