<svg width="64" height="64" viewBox="0 0 64 64" fill="none" xmlns="http://www.w3.org/2000/svg">
<rect x="8.4375" y="12.7344" width="49.8438" height="31.7969" fill="#368A08"/>
<path d="M31.6406 46.25H38.5156V56.5625H31.6406V46.25Z" fill="#99CC33"/>
<path d="M17.0312 6.28906C17.0312 5.57713 17.6084 5 18.3203 5H23.4766C24.1885 5 24.7656 5.57713 24.7656 6.28906C24.7656 7.00099 24.1885 7.57812 23.4766 7.57812H18.3203C17.6084 7.57812 17.0312 7.00099 17.0312 6.28906Z" fill="#99CC33"/>
<path d="M29.0625 6.28906C29.0625 5.57713 29.6396 5 30.3516 5H35.5078C36.2197 5 36.7969 5.57713 36.7969 6.28906C36.7969 7.00099 36.2197 7.57812 35.5078 7.57812H30.3516C29.6396 7.57812 29.0625 7.00099 29.0625 6.28906Z" fill="#99CC33"/>
<path d="M41.0938 6.28906C41.0938 5.57713 41.6709 5 42.3828 5H47.5391C48.251 5 48.8281 5.57713 48.8281 6.28906C48.8281 7.00099 48.251 7.57812 47.5391 7.57812H42.3828C41.6709 7.57812 41.0938 7.00099 41.0938 6.28906Z" fill="#99CC33"/>
<path d="M28.2031 46.25C28.2031 45.7754 28.5879 45.3906 29.0625 45.3906C29.5371 45.3906 29.9219 45.7754 29.9219 46.25V56.5625C29.9219 57.0371 29.5371 57.4219 29.0625 57.4219C28.5879 57.4219 28.2031 57.0371 28.2031 56.5625V46.25Z" fill="#7BFF53"/>
<path d="M35.0781 46.25C35.0781 45.7754 35.4629 45.3906 35.9375 45.3906C36.4121 45.3906 36.7969 45.7754 36.7969 46.25V56.5625C36.7969 57.0371 36.4121 57.4219 35.9375 57.4219C35.4629 57.4219 35.0781 57.0371 35.0781 56.5625V46.25Z" fill="#7BFF53"/>
<path d="M21.3281 59.1406C21.3281 58.666 21.7129 58.2812 22.1875 58.2812H42.8125C43.2871 58.2812 43.6719 58.666 43.6719 59.1406C43.6719 59.6152 43.2871 60 42.8125 60H22.1875C21.7129 60 21.3281 59.6152 21.3281 59.1406Z" fill="#7BFF53"/>
<path fill-rule="evenodd" clip-rule="evenodd" d="M57.4219 11.0156H7.57812C7.10351 11.0156 6.71875 11.4004 6.71875 11.875V40.2344C6.71875 40.709 7.10351 41.0938 7.57812 41.0938H57.4219C57.8965 41.0938 58.2812 40.709 58.2812 40.2344V11.875C58.2812 11.4004 57.8965 11.0156 57.4219 11.0156ZM7.57812 9.29688C6.15427 9.29688 5 10.4511 5 11.875V40.2344C5 41.6582 6.15427 42.8125 7.57812 42.8125H57.4219C58.8457 42.8125 60 41.6582 60 40.2344V11.875C60 10.4511 58.8457 9.29688 57.4219 9.29688H7.57812Z" fill="#7BFF53"/>
</svg>
