<svg width="64" height="64" viewBox="0 0 64 64" fill="none" xmlns="http://www.w3.org/2000/svg">
<path d="M9.07397 18.2626C9.07397 6.67283 20.9243 5.75098 28.6837 11.2682C42.3544 20.9886 50.4198 19.4826 59.9999 19V53.494C49.671 55.4971 41.9005 57.0829 27.9714 47.3399C17.816 40.2365 14.5423 40.6307 9.07397 42.5V18.2626Z" fill="#99CC33"/>
<path fill-rule="evenodd" clip-rule="evenodd" d="M55.8255 21.0498C56.4889 21.0002 57.1672 20.9398 57.8625 20.8695V56.8906C47.4304 58.9659 38.7541 57.9416 25.5138 46.8202C16.5384 39.2811 8.1696 42.7277 7.1232 47.9131C7.08474 48.1037 7.05617 48.2967 7.03783 48.4915C7.03706 49.1495 7.03704 49.7027 7.03704 50C7.03704 52.0804 8.06269 53.2973 9.44521 54.0379C10.8909 54.8125 12.7285 55.051 14.1295 55.0007C15.5916 54.9482 17.154 54.7059 18.327 53.9862C19.4167 53.3176 20.2778 52.1747 20.2779 50C20.2779 48.1776 18.6913 46.8179 16.6137 46.4871C14.5524 46.1589 12.6497 46.9448 12.0867 48.7874C11.925 49.3163 11.3572 49.6165 10.8184 49.4578C10.2797 49.2991 9.97391 48.7417 10.1355 48.2127C11.1003 45.0553 14.2904 44.0911 16.9398 44.5129C19.5729 44.9321 22.315 46.8224 22.3149 50C22.3149 52.8253 21.1248 54.628 19.4065 55.6823C17.7715 56.6854 15.769 56.9432 14.2039 56.9993C12.5775 57.0577 10.341 56.7962 8.46949 55.7936C6.53476 54.7571 5 52.9196 5 50V49.9983C5 49.5104 5 48.2886 5.00363 47.0522C5.00123 46.9736 5 46.8962 5 46.8202V18.1582C5 6.15117 16.713 4.28054 25.1193 10.4117C37.8476 19.6951 44.7667 21.8763 55.8255 21.0498ZM7.0398 43.7695C7.0389 43.7658 7.03798 43.762 7.03704 43.7583V18.1582C7.03704 15.4766 7.68859 13.5216 8.64385 12.1478C9.59343 10.7823 10.9235 9.87291 12.5064 9.39468C15.7295 8.42091 20.0959 9.23935 23.9046 12.0172C30.7146 16.9841 36.044 20.0643 41.3292 21.7039C46.0093 23.1557 50.5291 23.4395 55.8255 23.0554V55.2302C51.4521 55.9616 47.4797 56.0111 43.2822 54.8759C38.541 53.5937 33.3239 50.7483 26.8381 45.3005C21.8163 41.0823 16.6972 39.841 12.5504 40.709C10.3276 41.1742 8.3961 42.2636 7.0398 43.7695Z" fill="#7BFF53"/>
<path d="M21.7584 52.9828C23.3045 52.1513 24.3518 50.8327 24.3518 49V45.9019C17.9835 41.1812 12.0736 41.8676 9.07397 44.5852V49C9.07391 52.7106 14.0526 54.4659 18.3258 53.9869L18.3269 53.9862C19.4166 53.3176 20.2777 52.1747 20.2778 50C20.2778 48.1776 18.6912 46.8179 16.6136 46.4871C14.5523 46.1589 12.6496 46.9448 12.0866 48.7874C11.9249 49.3163 11.3571 49.6165 10.8183 49.4578C10.2796 49.2991 9.97381 48.7417 10.1354 48.2127C11.1002 45.0553 14.2903 44.0911 16.9397 44.5129C19.5728 44.9321 22.3149 46.8224 22.3148 50C22.3148 51.1604 22.114 52.1484 21.7584 52.9828Z" fill="#368A08"/>
<path d="M14.1666 18.5L17.7314 15L21.2962 18.5L17.7314 22L14.1666 18.5Z" fill="#368A08"/>
<path d="M42.6851 31.5L46.2499 28L49.8147 31.5L46.2499 35L42.6851 31.5Z" fill="#368A08"/>
<path d="M14.1666 33.5L17.7314 30L21.2962 33.5L17.7314 37L14.1666 33.5Z" fill="#368A08"/>
<path d="M42.6851 46.5L46.2499 43L49.8147 46.5L46.2499 50L42.6851 46.5Z" fill="#368A08"/>
<path d="M28.4258 31.5L31.9906 28L35.5555 31.5L31.9906 35L28.4258 31.5Z" fill="#368A08"/>
</svg>
